<svg xmlns="http://www.w3.org/2000/svg" xmlns:xlink="http://www.w3.org/1999/xlink" width="744.105" height="692.173" viewBox="0 0 744.105 692.173">
  <defs>
    <linearGradient id="linear-gradient" x1="0.654" y1="0.16" x2="0.276" y2="0.709" gradientUnits="objectBoundingBox">
      <stop offset="0" stop-color="#ff7d0f"/>
      <stop offset="1" stop-color="#50cdc8"/>
    </linearGradient>
    <clipPath id="clip-path">
      <path id="Path_8835" data-name="Path 8835" d="M602.6,2464.717a320.709,320.709,0,0,0-57.732,12.542c-43.593,13.776-84.217,36.854-117.556,68.091-14.334,13.431-27.578,28.734-34.6,47.078-8.61,22.483-7.124,47.834-.461,70.975,19.039,66.062,65.99,120.589,75.278,190.3,4.046,30.337,1.142,61.239,4.62,91.641s14.9,62.108,40.137,79.426c19.38,13.3,44.51,16.183,67.678,12.214s44.768-14.215,65.417-25.444c83.937-45.651,156.808-108.842,228.93-171.508,21.656-18.814,44.824-40.414,47.856-68.937,4.271-40.283-29.951-64.6-50.515-93.863-17.276-24.588-22.1-55.578-25.737-85.4-1.912-15.636-3.683-31.568-9.9-46.044-27.783-64.715-116.11-83.741-187.735-83.744a380.583,380.583,0,0,0-45.678,2.678" transform="translate(-386.74 -2462.039)" fill="url(#linear-gradient)"/>
    </clipPath>
    <clipPath id="clip-path-2">
      <rect id="Rectangle_1412" data-name="Rectangle 1412" width="744.105" height="675.587" fill="none"/>
    </clipPath>
    <clipPath id="clip-path-4">
      <rect id="Rectangle_1398" data-name="Rectangle 1398" width="57.146" height="26.646" transform="translate(281.146 467.452)" fill="none"/>
    </clipPath>
    <clipPath id="clip-path-5">
      <rect id="Rectangle_1399" data-name="Rectangle 1399" width="31.981" height="11.426" transform="translate(286.001 423.756)" fill="none"/>
    </clipPath>
    <clipPath id="clip-path-6">
      <rect id="Rectangle_1400" data-name="Rectangle 1400" width="16.993" height="11.077" transform="translate(380.569 395.29)" fill="none"/>
    </clipPath>
    <clipPath id="clip-path-7">
      <rect id="Rectangle_1401" data-name="Rectangle 1401" width="60.053" height="17.477" transform="translate(280.943 375.498)" fill="none"/>
    </clipPath>
    <clipPath id="clip-path-8">
      <rect id="Rectangle_1402" data-name="Rectangle 1402" width="42.028" height="42.503" transform="translate(401.589 457.832)" fill="none"/>
    </clipPath>
    <clipPath id="clip-path-9">
      <rect id="Rectangle_1403" data-name="Rectangle 1403" width="21.22" height="71.464" transform="translate(411.705 240.467)" fill="none"/>
    </clipPath>
    <clipPath id="clip-path-10">
      <rect id="Rectangle_1404" data-name="Rectangle 1404" width="105.26" height="132.903" transform="translate(328.503 249.883)" fill="none"/>
    </clipPath>
    <clipPath id="clip-path-11">
      <rect id="Rectangle_1406" data-name="Rectangle 1406" width="24.451" height="66.294" transform="translate(308.074 244.263)" fill="none"/>
    </clipPath>
    <clipPath id="clip-path-12">
      <rect id="Rectangle_1407" data-name="Rectangle 1407" width="40.934" height="34.035" transform="translate(274.108 296.362)" fill="none"/>
    </clipPath>
    <clipPath id="clip-path-13">
      <rect id="Rectangle_1408" data-name="Rectangle 1408" width="58.341" height="21.328" transform="translate(377.302 345.106)" fill="none"/>
    </clipPath>
    <clipPath id="clip-path-14">
      <rect id="Rectangle_1409" data-name="Rectangle 1409" width="49.281" height="39.172" transform="translate(430.412 303.6)" fill="none"/>
    </clipPath>
    <clipPath id="clip-path-15">
      <rect id="Rectangle_1410" data-name="Rectangle 1410" width="23.762" height="48.976" transform="translate(180.795 394.896)" fill="none"/>
    </clipPath>
  </defs>
  <g id="Group_5034" data-name="Group 5034" transform="translate(-1049 -2141.414)">
    <g id="Group_3642" data-name="Group 3642" transform="translate(737.743 -320.625)">
      <g id="Group_3133" data-name="Group 3133" transform="translate(386.74 2462.039)" clip-path="url(#clip-path)">
        <rect id="Rectangle_1307" data-name="Rectangle 1307" width="789.042" height="782.044" transform="translate(-281.494 367.091) rotate(-52.779)" fill="url(#linear-gradient)"/>
      </g>
    </g>
    <g id="Group_3401" data-name="Group 3401" transform="translate(1049 2158)">
      <g id="Group_3400" data-name="Group 3400" clip-path="url(#clip-path-2)">
        <g id="Group_3399" data-name="Group 3399">
          <g id="Group_3398" data-name="Group 3398" clip-path="url(#clip-path-2)">
            <path id="Path_9008" data-name="Path 9008" d="M301.806,361.991s-32.037,21.764-33.794,72.568c-.586,17.043,7.784,71.306,7.784,71.306l187.367.755L428.118,361.181l-58.949-13.518Z" fill="#50c3be"/>
            <path id="Path_9009" data-name="Path 9009" d="M373.382,399.706,347.856,506.192l63.8.428Z" fill="#263238"/>
            <path id="Path_9010" data-name="Path 9010" d="M372.413,376.647a22.962,22.962,0,0,1,.338,3.481c.146,2.343.327,5.227.529,8.426s.316,6.274.361,8.426a19.994,19.994,0,0,1-.079,3.5,22.946,22.946,0,0,1-.338-3.481c-.146-2.331-.327-5.226-.529-8.414s-.316-6.275-.35-8.438a19.522,19.522,0,0,1,.068-3.5" fill="#263238"/>
            <path id="Path_9011" data-name="Path 9011" d="M383.971,388.385c0,.056-.417.146-1.126.541a5.43,5.43,0,0,0-2.13,2.365,4.585,4.585,0,0,0,.226,4.506,4.776,4.776,0,0,0,8.809-1.408,4.562,4.562,0,0,0-1.127-4.326,5.41,5.41,0,0,0-2.76-1.588c-.743-.169-1.126-.124-1.194-.18s.113,0,.316-.068a3.325,3.325,0,0,1,.924,0,5.308,5.308,0,0,1,3.007,1.521,5.392,5.392,0,0,1,1.284,2.005,4.9,4.9,0,0,1,.124,2.749,5.305,5.305,0,0,1-9.8,1.554,4.9,4.9,0,0,1-.732-2.647,5.4,5.4,0,0,1,.6-2.253,5.327,5.327,0,0,1,2.388-2.388,3.217,3.217,0,0,1,.867-.3c.214-.09.316-.1.327-.079" fill="#263238"/>
            <path id="Path_9012" data-name="Path 9012" d="M404.394,446.522a10.452,10.452,0,0,0-1.126.541,5.414,5.414,0,0,0-2.118,2.365,4.585,4.585,0,0,0,.225,4.506,4.776,4.776,0,0,0,8.809-1.408,4.574,4.574,0,0,0-1.126-4.326,5.389,5.389,0,0,0-2.749-1.588c-.755-.169-1.194-.124-1.194-.18a.8.8,0,0,1,.315-.068,3.668,3.668,0,0,1,.913,0,5.331,5.331,0,0,1,3.019,1.532,5.24,5.24,0,0,1,1.273,1.994,4.729,4.729,0,0,1,.124,2.749,5.283,5.283,0,0,1-9.789,1.554,4.717,4.717,0,0,1-.733-2.647,5.26,5.26,0,0,1,.6-2.253,5.332,5.332,0,0,1,2.388-2.388,3.525,3.525,0,0,1,.868-.3,1.135,1.135,0,0,1,.3-.079" fill="#263238"/>
            <path id="Path_9013" data-name="Path 9013" d="M338.146,404.3a3.012,3.012,0,0,1-.406.5c-.27.315-.675.777-1.227,1.351a50.629,50.629,0,0,1-5.047,4.506,52.042,52.042,0,0,1-20.051,9.429,39.831,39.831,0,0,1-12.223.991A18.5,18.5,0,0,1,289.8,417.7a13.821,13.821,0,0,1-4.315-5.193,11.737,11.737,0,0,1-.608-1.735,2.25,2.25,0,0,1-.1-.631c.057,0,.226.856.924,2.253a13.97,13.97,0,0,0,4.348,4.945,18.5,18.5,0,0,0,9.192,3.211,40.7,40.7,0,0,0,12.054-1.037,53.392,53.392,0,0,0,19.927-9.192A59.745,59.745,0,0,0,336.344,406l1.318-1.273a2.593,2.593,0,0,1,.484-.428" fill="#263238"/>
            <path id="Path_9014" data-name="Path 9014" d="M338.146,414.846a3.012,3.012,0,0,1-.406.5c-.27.315-.675.788-1.227,1.363a50.694,50.694,0,0,1-25.1,13.912,39.861,39.861,0,0,1-12.223,1,18.6,18.6,0,0,1-9.394-3.379,13.729,13.729,0,0,1-4.315-5.182,11.313,11.313,0,0,1-.608-1.746,2.18,2.18,0,0,1-.1-.631c.057,0,.226.856.924,2.253a14.006,14.006,0,0,0,4.348,4.957,18.5,18.5,0,0,0,9.192,3.2,40.338,40.338,0,0,0,12.054-1.037,53.6,53.6,0,0,0,19.927-9.18,59.584,59.584,0,0,0,5.126-4.326l1.318-1.273a2.739,2.739,0,0,1,.484-.428" fill="#263238"/>
            <path id="Path_9015" data-name="Path 9015" d="M339.8,411.658a2.449,2.449,0,0,1,.079.451c0,.326.079.777.146,1.34.135,1.217.327,2.951.564,5.171.473,4.506,1.374,10.96,1.779,19.037a89.548,89.548,0,0,1-.281,13.214,56.913,56.913,0,0,1-3.38,14.79,38.183,38.183,0,0,1-9.113,14.025,33.659,33.659,0,0,1-7.164,5.295,28.883,28.883,0,0,1-8.652,3.052,26.386,26.386,0,0,1-17.516-3.244,34.05,34.05,0,0,1-12.088-11.58,45.7,45.7,0,0,1-5.632-14.07,65.31,65.31,0,0,1-1.554-13.157,128.375,128.375,0,0,1,1.351-19.071c.327-2.253.575-3.943.744-5.148.09-.564.169-1,.214-1.341a2.775,2.775,0,0,1,.1-.451,2.375,2.375,0,0,1,0,.462c0,.338-.09.778-.158,1.341-.146,1.216-.36,2.951-.642,5.159a135.083,135.083,0,0,0-1.126,19.038,65.437,65.437,0,0,0,1.6,13.033,45.507,45.507,0,0,0,5.632,13.878,33.435,33.435,0,0,0,11.862,11.4,25.8,25.8,0,0,0,17.134,3.166,27.825,27.825,0,0,0,8.471-2.986,33.05,33.05,0,0,0,7.051-5.193,37.675,37.675,0,0,0,9.012-13.8,56.691,56.691,0,0,0,3.38-14.644,89.33,89.33,0,0,0,.349-13.146c-.349-8.055-1.127-14.543-1.589-19.038-.225-2.253-.371-4-.461-5.182,0-.563-.068-1.013-.09-1.351s-.023-.451-.023-.451" fill="#263238"/>
            <g id="Group_3364" data-name="Group 3364" opacity="0.2">
              <g id="Group_3363" data-name="Group 3363">
                <g id="Group_3362" data-name="Group 3362" clip-path="url(#clip-path-4)">
                  <path id="Path_9016" data-name="Path 9016" d="M281.18,467.452c2.028,6.872,2.9,8.651,6.691,14.137a28.351,28.351,0,0,0,14.588,11.062,26.413,26.413,0,0,0,25.323-4.506c6.883-5.756,9.316-14.644,10.51-20.67-3,4.032-6.184,9.766-9.958,13.089s-8.764,6.23-13.743,7.1c-6.759,1.127-14.813-.9-20.592-4.573s-9.271-10.251-12.853-15.625"/>
                </g>
              </g>
            </g>
            <g id="Group_3367" data-name="Group 3367" opacity="0.2">
              <g id="Group_3366" data-name="Group 3366">
                <g id="Group_3365" data-name="Group 3365" clip-path="url(#clip-path-5)">
                  <path id="Path_9017" data-name="Path 9017" d="M286,423.756a19.352,19.352,0,0,0,14.182,11.118c6.1,1.127,13.991-.8,17.8-6.522-13.4,4.709-26.732,4.821-31.981-4.6"/>
                </g>
              </g>
            </g>
            <path id="Path_9018" data-name="Path 9018" d="M396.159,407.141a2.575,2.575,0,0,1-.867,0,14.443,14.443,0,0,1-2.253-.5,21.523,21.523,0,0,1-12.11-9.192,16.332,16.332,0,0,1-1.126-2.072c-.214-.519-.316-.8-.271-.823s.609,1.059,1.712,2.67a24.885,24.885,0,0,0,5.227,5.463,24.48,24.48,0,0,0,6.669,3.56c1.836.575,3.03.789,3.019.89" fill="#263238"/>
            <g id="Group_3370" data-name="Group 3370" opacity="0.2">
              <g id="Group_3369" data-name="Group 3369">
                <g id="Group_3368" data-name="Group 3368" clip-path="url(#clip-path-6)">
                  <path id="Path_9019" data-name="Path 9019" d="M380.569,395.29c1.386,4.709,6.612,9.1,11.265,10.645a6.866,6.866,0,0,0,2.85.417,3.311,3.311,0,0,0,2.455-1.363c.981-1.5.136-3.627-1.306-4.686a13.082,13.082,0,0,0-5.024-1.791c-3.594-.834-6.838.98-9.812-2.039"/>
                </g>
              </g>
            </g>
            <g id="Group_3373" data-name="Group 3373" opacity="0.2">
              <g id="Group_3372" data-name="Group 3372">
                <g id="Group_3371" data-name="Group 3371" clip-path="url(#clip-path-7)">
                  <path id="Path_9020" data-name="Path 9020" d="M280.943,386.571c8.4,7.345,20.277,7.66,30.967,4.506S331.916,381.986,341,375.5c-9.9,1.971-18.351,6.488-28.343,7.964-9.541,1.408-19.465,1.554-28.849-1.633"/>
                </g>
              </g>
            </g>
            <path id="Path_9021" data-name="Path 9021" d="M442.1,499.4a.638.638,0,0,1-.214.124,5.779,5.779,0,0,1-.665.3,9.972,9.972,0,0,1-2.737.676,15.067,15.067,0,0,1-9.834-2.636c-3.74-2.377-7.142-6.376-10.781-10.814a116.945,116.945,0,0,1-10.487-15.478,130.894,130.894,0,0,1-12.718-31.429c-1.127-4.213-1.78-7.66-2.2-10.059-.18-1.127-.326-2.084-.439-2.76a8.769,8.769,0,0,1-.113-.969,5.136,5.136,0,0,1,.237.946l.541,2.738c.484,2.377,1.239,5.812,2.365,9.992a136.646,136.646,0,0,0,12.831,31.248,120.749,120.749,0,0,0,10.408,15.433c3.594,4.438,6.951,8.437,10.578,10.8a15.1,15.1,0,0,0,9.632,2.76,13.65,13.65,0,0,0,3.593-.879" fill="#263238"/>
            <g id="Group_3376" data-name="Group 3376" opacity="0.2">
              <g id="Group_3375" data-name="Group 3375">
                <g id="Group_3374" data-name="Group 3374" clip-path="url(#clip-path-8)">
                  <path id="Path_9022" data-name="Path 9022" d="M401.589,457.832s16.627,20.907,28.759,26.033c4.112,1.746,8.64,3.165,11.445,6.635a7.288,7.288,0,0,1,1.746,5.88,3.261,3.261,0,0,1-.225.721c-1.746,4.45-10.139,3.83-13.98,1.014-1.678-1.228-.687-.439-2.039-1.453-3.886-2.929-24.692-27.024-25.706-38.83"/>
                </g>
              </g>
            </g>
            <path id="Path_9023" data-name="Path 9023" d="M328.188,175.649l10.611-2.107,52.483.62,26.664,5.858,10.172,148.9-117.886,5.508Z" fill="#d6d6d6"/>
            <path id="Path_9024" data-name="Path 9024" d="M404.529,322.069l2.512-67.724-4.179-78.527c16.582,4.27,39.258,9.012,51.818,23.33,8.144,9.293,16.131,21.177,19.15,40.316,3.47,22.53,8.043,65.618,10.9,89.724" fill="#50c3be"/>
            <path id="Path_9025" data-name="Path 9025" d="M421.2,310.962,339.7,324.2l-2.884-50.331-4.505-99.5c-23.657.969-50.579,20.513-58.656,35.743-5.633,10.567-10.353,22.845-11.828,34.73-2.828,22.529-7.615,61.134-10.476,85.252a49.686,49.686,0,0,0,13.675,40.418c11.828,12.2,30.347,16.424,47,12.977l124.093-34.921Z" fill="#50c3be"/>
            <path id="Path_9026" data-name="Path 9026" d="M412.6,310.061a1.175,1.175,0,0,1,.056-.282c.068-.2.147-.473.237-.811.236-.754.552-1.8.969-3.143.878-2.771,2.129-6.758,3.683-11.692l12.786-39.923.169.349L417.281,249.1l-.518-.214.462-.3,3.053-2.005,9.969-6.511-.113.315c-5.069-17.6-9.53-33.118-12.74-44.282-1.566-5.542-2.828-10-3.718-13.112-.4-1.521-.732-2.7-.968-3.549q-.147-.552-.237-.912a1.221,1.221,0,0,1-.068-.315.72.72,0,0,0,.113.293l.293.912c.259.834.62,2.005,1.07,3.515l3.887,13.055,12.92,44.237.057.2-.181.124-9.958,6.522-3.052,1.994v-.518l13.2,5.486.248.1-.079.248c-5.2,15.985-9.744,29.9-12.988,39.866-1.634,4.934-2.929,8.888-3.842,11.637-.45,1.329-.811,2.377-1.059,3.12-.112.327-.214.586-.281.8a1.369,1.369,0,0,1-.158.259" fill="#263238"/>
            <g id="Group_3379" data-name="Group 3379" opacity="0.2">
              <g id="Group_3378" data-name="Group 3378">
                <g id="Group_3377" data-name="Group 3377" clip-path="url(#clip-path-9)">
                  <path id="Path_9027" data-name="Path 9027" d="M430.618,240.467a11.72,11.72,0,0,1-4.1,6.162c-1.555.89-.665,2.073.619,3.312,1.543,1.487,4.022,1.892,5.159,3.7s.5,3.863-.09,5.756a417.854,417.854,0,0,1-20.5,52.539l18.914-57.642-13.191-5.441Z"/>
                </g>
              </g>
            </g>
            <path id="Path_9028" data-name="Path 9028" d="M332.919,311.458a.976.976,0,0,1-.135-.237c-.079-.18-.192-.4-.316-.7l-1.216-2.749c-1.059-2.433-2.569-5.936-4.506-10.307l-15.2-35.619-.09-.2.191-.135,10.42-7.457v.428l-6.905-5.475L312.1,246.6l-1.521-1.126-.372-.3a1.3,1.3,0,0,1-.214-.192.934.934,0,0,1-.158-.315,4.222,4.222,0,0,1-.123-1.025,58.022,58.022,0,0,1,.7-7.525c.687-4.878,1.5-9.564,2.253-14.025,1.6-8.91,3.188-16.9,4.506-23.656s2.5-12.132,3.3-15.872c.406-1.847.733-3.289.958-4.314l.259-1.127a1.313,1.313,0,0,1,.113-.372,2.112,2.112,0,0,1-.057.395,10,10,0,0,1-.2,1.126q-.3,1.544-.845,4.326c-.744,3.785-1.8,9.214-3.109,15.906s-2.839,14.723-4.416,23.656c-.777,4.449-1.577,9.136-2.253,14a58.06,58.06,0,0,0-.687,7.435,3.386,3.386,0,0,0,.1.856c0,.135.327.338.563.541l1.51,1.194,3.053,2.421,6.894,5.464.3.248-.316.225-10.431,7.435.09-.349,15.106,35.664c1.837,4.4,3.3,7.885,4.315,10.375.484,1.183.867,2.106,1.126,2.782l.271.721a1.812,1.812,0,0,1,.1.293" fill="#263238"/>
            <path id="Path_9029" data-name="Path 9029" d="M349.344,249.915l82.118,12.668a2.716,2.716,0,0,1,2.269,3.1l-17.711,114.8a2.715,2.715,0,0,1-3.1,2.269L330.8,370.086a2.715,2.715,0,0,1-2.269-3.1l17.711-114.805a2.714,2.714,0,0,1,3.1-2.269" fill="#50c3be"/>
            <g id="Group_3382" data-name="Group 3382" opacity="0.2">
              <g id="Group_3381" data-name="Group 3381">
                <g id="Group_3380" data-name="Group 3380" clip-path="url(#clip-path-10)">
                  <path id="Path_9030" data-name="Path 9030" d="M349.344,249.915l82.118,12.668a2.716,2.716,0,0,1,2.269,3.1l-17.711,114.8a2.715,2.715,0,0,1-3.1,2.269L330.8,370.086a2.715,2.715,0,0,1-2.269-3.1l17.711-114.805a2.714,2.714,0,0,1,3.1-2.269"/>
                </g>
              </g>
            </g>
            <rect id="Rectangle_1405" data-name="Rectangle 1405" width="113.188" height="78.639" transform="translate(333.891 364.673) rotate(-81.23)" fill="#e1e1e1"/>
            <path id="Path_9031" data-name="Path 9031" d="M405.52,262.962a9.653,9.653,0,0,0-7.716-6.567l.653-4.787a6.622,6.622,0,0,0-13.089-2.017l-.766,4.957-1.668-.226a9.609,9.609,0,0,0-9.18,3.988l-1.3,1.8,33.795,5.227Zm-13.968-8.741a3.56,3.56,0,1,1,4.056-2.981v.007a3.57,3.57,0,0,1-4.055,2.974" fill="#263238"/>
            <path id="Path_9032" data-name="Path 9032" d="M377.483,273.124a95.716,95.716,0,0,1-10.59-1.329,99.264,99.264,0,0,1-10.487-1.915,95.689,95.689,0,0,1,10.577,1.329,99.1,99.1,0,0,1,10.5,1.915" fill="#263238"/>
            <path id="Path_9033" data-name="Path 9033" d="M366.015,274.994a21.789,21.789,0,0,1-5.125-.5,22.755,22.755,0,0,1-5.036-1.07,23.347,23.347,0,0,1,5.126.5,22.759,22.759,0,0,1,5.035,1.07" fill="#263238"/>
            <path id="Path_9034" data-name="Path 9034" d="M413.992,292.544c0,.158-13.18-1.746-29.367-4.236s-29.289-4.663-29.289-4.821,13.169,1.735,29.368,4.236,29.311,4.652,29.288,4.821" fill="#263238"/>
            <path id="Path_9035" data-name="Path 9035" d="M413.124,298.131c0,.158-13.169-1.735-29.367-4.236s-29.289-4.652-29.289-4.81,13.169,1.735,29.368,4.236,29.311,4.652,29.288,4.81" fill="#263238"/>
            <path id="Path_9036" data-name="Path 9036" d="M412.268,303.73c0,.158-13.18-1.746-29.367-4.236s-29.289-4.663-29.289-4.821,13.18,1.735,29.379,4.236,29.3,4.652,29.277,4.821" fill="#263238"/>
            <path id="Path_9037" data-name="Path 9037" d="M411.4,309.317c0,.158-13.169-1.735-29.367-4.236s-29.289-4.652-29.289-4.821,13.169,1.746,29.368,4.247,29.356,4.652,29.288,4.81" fill="#263238"/>
            <path id="Path_9038" data-name="Path 9038" d="M410.533,314.9c0,.169-13.169-1.735-29.367-4.236s-29.289-4.652-29.289-4.81,13.169,1.735,29.368,4.236,29.322,4.652,29.288,4.81" fill="#263238"/>
            <path id="Path_9039" data-name="Path 9039" d="M409.677,320.5c0,.158-13.18-1.735-29.367-4.236s-29.289-4.652-29.289-4.821,13.169,1.735,29.368,4.236,29.311,4.663,29.288,4.821" fill="#263238"/>
            <path id="Path_9040" data-name="Path 9040" d="M379.578,321.021a5.052,5.052,0,0,1-1.126-.068c-.755-.078-1.825-.213-3.155-.393-2.669-.361-6.342-.891-10.386-1.509s-7.705-1.228-10.352-1.69c-1.329-.226-2.388-.429-3.132-.576a4.182,4.182,0,0,1-1.126-.292,4.427,4.427,0,0,1,1.126.067c.755.079,1.825.215,3.154.394,2.67.351,6.343.891,10.387,1.511s7.705,1.228,10.352,1.69c1.329.224,2.388.427,3.132.573a4.376,4.376,0,0,1,1.126.293" fill="#263238"/>
            <path id="Path_9041" data-name="Path 9041" d="M418.689,278.97a19.469,19.469,0,0,1-4.742-.439,19.258,19.258,0,0,1-4.653-1.014,38.966,38.966,0,0,1,9.395,1.453" fill="#263238"/>
            <path id="Path_9042" data-name="Path 9042" d="M364.359,331.149a51.083,51.083,0,0,1-7.66-.89,50.47,50.47,0,0,1-7.57-1.464,50.822,50.822,0,0,1,7.66.89,51.258,51.258,0,0,1,7.57,1.464" fill="#263238"/>
            <path id="Path_9043" data-name="Path 9043" d="M364.089,336.308a53.042,53.042,0,0,1-7.795-.912,50.3,50.3,0,0,1-7.694-1.487,52.625,52.625,0,0,1,7.784.912,50.22,50.22,0,0,1,7.7,1.487" fill="#263238"/>
            <path id="Path_9044" data-name="Path 9044" d="M408.652,337.209a24.029,24.029,0,0,1-7.356-1.126,12.4,12.4,0,0,1,3.729.27,11.545,11.545,0,0,1,3.627.856" fill="#263238"/>
            <path id="Path_9045" data-name="Path 9045" d="M408.2,341.816a24.028,24.028,0,0,1-7.356-1.126,24.028,24.028,0,0,1,7.356,1.126" fill="#263238"/>
            <path id="Path_9046" data-name="Path 9046" d="M356.158,340.543a11.775,11.775,0,0,1-3.6-.259,11.144,11.144,0,0,1-3.5-.845,11.279,11.279,0,0,1,3.593.259,11.047,11.047,0,0,1,3.515.845" fill="#263238"/>
            <path id="Path_9047" data-name="Path 9047" d="M407.638,347.19a12.7,12.7,0,0,1-5.339-.822,6.263,6.263,0,0,1,2.714.112,6.4,6.4,0,0,1,2.625.71" fill="#263238"/>
            <path id="Path_9048" data-name="Path 9048" d="M346.718,351.414a7.562,7.562,0,0,1,1.329,0l3.74.113,13.36.529h.3l-.067.293a6.4,6.4,0,0,1-2.343,3.639,5.31,5.31,0,0,1-4.506,1.025,5.25,5.25,0,0,1-3.706-3.211,4.505,4.505,0,0,1,1.374-4.866,4.122,4.122,0,0,1,1.78-.946,2.56,2.56,0,0,1,.507-.079,2.216,2.216,0,0,1,.552,0,.775.775,0,0,1,.574.428,1.2,1.2,0,0,1,.068.608,8.832,8.832,0,0,1-1.228,3.56,9.02,9.02,0,0,1-2.49,2.636,5.632,5.632,0,0,1-3.379,1.126,3.166,3.166,0,0,1-2.7-1.949,4.745,4.745,0,0,1-.225-3.143,11.374,11.374,0,0,1,3.154-4.505l.3-.3v.428a7.677,7.677,0,0,1-.856,4.506,8.113,8.113,0,0,1-2.253,2.67,7.015,7.015,0,0,1-1.926,1.059,2.718,2.718,0,0,1-.743.18,9.081,9.081,0,0,0,2.534-1.419,8.207,8.207,0,0,0,2.084-2.636,7.364,7.364,0,0,0,.732-4.326l.361.113a11.1,11.1,0,0,0-2.985,4.371,4.245,4.245,0,0,0,.225,2.805,2.637,2.637,0,0,0,2.253,1.622,4.985,4.985,0,0,0,2.974-1.025,8.236,8.236,0,0,0,3.458-5.791.626.626,0,0,0,0-.3c0-.056,0-.079-.158-.1a2.673,2.673,0,0,0-.811.079,3.669,3.669,0,0,0-1.532.811,3.976,3.976,0,0,0-1.2,4.235,4.707,4.707,0,0,0,7.333,1.938,5.82,5.82,0,0,0,2.174-3.312l.237.3-13.247-.777-3.74-.248a10.606,10.606,0,0,1-1.307-.135" fill="#263238"/>
            <path id="Path_9049" data-name="Path 9049" d="M402.389,359.806a3.144,3.144,0,0,1-.642.676,4,4,0,0,1-.958.608,2.157,2.157,0,0,1-1.543.079,1.5,1.5,0,0,1-.788-.574,2.024,2.024,0,0,1-.316-.992,18.01,18.01,0,0,1,.158-2.151c.146-1.532.315-3.211.5-5.024l.484.191-4.3,5.824-1.07,1.442-.7.946.169-1.126c.462-3.008.879-5.813,1.251-8.28l.416.225a26.472,26.472,0,0,0-4.63,5.069c-.946,1.364-1.4,2.253-1.453,2.186a2.47,2.47,0,0,1,.259-.642,18.668,18.668,0,0,1,.958-1.7,23.912,23.912,0,0,1,4.506-5.3l.507-.439-.1.676c-.338,2.456-.743,5.272-1.126,8.291l-.53-.226,1.127-1.441c1.532-2.051,2.985-4.011,4.337-5.8l.6-.811-.113,1c-.214,1.813-.4,3.492-.585,5.013a19.141,19.141,0,0,0-.2,2.084,1.271,1.271,0,0,0,.811,1.272,2.454,2.454,0,0,0,2.253-.518,5.625,5.625,0,0,1,.732-.563" fill="#263238"/>
            <path id="Path_9050" data-name="Path 9050" d="M404.372,356.742a105.017,105.017,0,0,1-11.051.237,105.083,105.083,0,0,1-11.039-.338,102.416,102.416,0,0,1,11.039-.248,102.929,102.929,0,0,1,11.051.349" fill="#263238"/>
            <path id="Path_9051" data-name="Path 9051" d="M407.965,360.245a68.643,68.643,0,0,1-8.832,1.25,69.552,69.552,0,0,1-8.888.677,64.95,64.95,0,0,1,8.832-1.262,66.09,66.09,0,0,1,8.888-.665" fill="#263238"/>
            <g id="Group_3385" data-name="Group 3385" opacity="0.2">
              <g id="Group_3384" data-name="Group 3384">
                <g id="Group_3383" data-name="Group 3383" clip-path="url(#clip-path-11)">
                  <path id="Path_9052" data-name="Path 9052" d="M310.006,244.263c-.135,3.379.777,6.826,3.593,8.73-3.525,1.712-5.407,5.813-5.519,9.733s1.25,7.728,2.726,11.366c4.562,11.186,14.3,26.934,21.718,36.464,0,0-3.762-10.138-4.844-12.515-4.888-10.69-9.2-21.4-14.1-32.127-.541-1.127-1.51-4.416-1.51-4.416a6.248,6.248,0,0,0,1.465-1c2.749-2.253,8.708-6.207,8.708-6.207s-12.234-9.688-12.234-10.026"/>
                </g>
              </g>
            </g>
            <path id="Path_9053" data-name="Path 9053" d="M309.837,267.243c.158,0-.124,13.011-.642,29.041s-1.059,29.029-1.217,29.018.113-13,.631-29.041,1.059-29.029,1.228-29.018" fill="#263238"/>
            <path id="Path_9054" data-name="Path 9054" d="M329.235,233.077h-1.126c0-.428,1.633-43.043,2.906-60.008a8.753,8.753,0,0,1,2.962-6.263c3.515-3.007,8.776-2.613,9.012-2.6l-.09,1.127c-.056,0-5.024-.361-8.178,2.331a7.731,7.731,0,0,0-2.58,5.5c-1.239,16.84-2.85,59.444-2.906,59.917" fill="#263238"/>
            <path id="Path_9055" data-name="Path 9055" d="M339.791,304.361H337.8v-2.253h1.994a7.885,7.885,0,0,0,7.885-7.885V270.364h2.253v23.859a10.138,10.138,0,0,1-10.138,10.138" fill="#455a64"/>
            <path id="Path_9056" data-name="Path 9056" d="M340.6,303.505a2.422,2.422,0,1,1-2.174-2.647,2.422,2.422,0,0,1,2.174,2.647" fill="#263238"/>
            <path id="Path_9057" data-name="Path 9057" d="M320.3,304.3h-1.994a10.138,10.138,0,0,1-10.138-10.138l.09-23.859h2.253l-.09,23.859a7.885,7.885,0,0,0,7.885,7.885H320.3Z" fill="#455a64"/>
            <path id="Path_9058" data-name="Path 9058" d="M317.509,303.437a2.422,2.422,0,1,0,0-.011v.011" fill="#263238"/>
            <path id="Path_9059" data-name="Path 9059" d="M307.6,273.056l-.282-17.01c-.214-12.966,9.26-23.656,21.122-23.87a20.592,20.592,0,0,1,15.376,6.691,24.561,24.561,0,0,1,6.523,16.458l.281,17.021-3.379.057-.282-17.021a21.145,21.145,0,0,0-5.632-14.205,17.122,17.122,0,0,0-12.853-5.633c-10,.169-18.024,9.327-17.8,20.435l.282,17.009Z" fill="#263238"/>
            <path id="Path_9060" data-name="Path 9060" d="M403.82,233.708c0-.451-5.171-44.732-6.658-58.926l-.1-1.036c-.462-4.822-1-10.274-6.331-11.716l.293-1.126c6.083,1.644,6.68,7.772,7.165,12.695l.1,1.025c1.476,14.194,6.6,58.476,6.646,58.926Z" fill="#263238"/>
            <path id="Path_9061" data-name="Path 9061" d="M395.84,217.572a12.087,12.087,0,1,1,0,17.094,12.088,12.088,0,0,1,0-17.094" fill="#263238"/>
            <path id="Path_9062" data-name="Path 9062" d="M410.218,226.116a5.846,5.846,0,1,1-5.846-5.846h.011a5.834,5.834,0,0,1,5.835,5.835Z" fill="#455a64"/>
            <path id="Path_9063" data-name="Path 9063" d="M332.919,311.458l-15.174,37.32,121.04,33.558a38.818,38.818,0,0,0,32.736-5.632c12.662-8.933,15.771-24.558,14.227-40.024l-2.185-16.447Z" fill="#50c3be"/>
            <path id="Path_9064" data-name="Path 9064" d="M461.157,351.966c-.124,0-.383-2.546-1.633-6.477a32.538,32.538,0,0,0-1.127-3.166c-.428-1.126-1.025-2.253-1.622-3.514a46.729,46.729,0,0,0-4.878-7.379,47.283,47.283,0,0,0-6.263-6.24c-1.126-.823-2.1-1.645-3.12-2.253a32.653,32.653,0,0,0-2.873-1.769c-3.6-1.994-6.071-2.76-6.026-2.884a9.353,9.353,0,0,1,1.723.53,16.944,16.944,0,0,1,1.971.777c.755.349,1.634.7,2.535,1.217a29.793,29.793,0,0,1,2.94,1.723c1.048.631,2.084,1.453,3.188,2.253a45.828,45.828,0,0,1,6.387,6.286,44.993,44.993,0,0,1,4.889,7.5c.6,1.251,1.183,2.422,1.6,3.582a29.607,29.607,0,0,1,1.126,3.222,23.484,23.484,0,0,1,.687,2.726,13.971,13.971,0,0,1,.372,2.129,9.506,9.506,0,0,1,.124,1.735" fill="#263238"/>
            <g id="Group_3388" data-name="Group 3388" opacity="0.2">
              <g id="Group_3387" data-name="Group 3387">
                <g id="Group_3386" data-name="Group 3386" clip-path="url(#clip-path-12)">
                  <path id="Path_9065" data-name="Path 9065" d="M315.042,327.341c-9.237.766-16.368,1.611-25.909,2.782-5.959.733-12.143.316-14.092-5.35s-.71-12.155,2.489-17.235,8.224-16.9,35.124-7.886Z"/>
                </g>
              </g>
            </g>
            <path id="Path_9066" data-name="Path 9066" d="M327.5,325.708l.068-.248.259-.743,1.014-2.839,3.886-10.488.056-.146h.147l41.172,3.729,39.833,3.785L426,319.963l3.278.36.845.113a.945.945,0,0,1,.293.056h-1.149l-3.289-.247-12.087-1.037L374.047,315.6,332.9,311.7l.2-.136-4.056,10.432-1.126,2.793-.3.721c-.057.135-.1.214-.113.2" fill="#263238"/>
            <g id="Group_3391" data-name="Group 3391" opacity="0.2">
              <g id="Group_3390" data-name="Group 3390">
                <g id="Group_3389" data-name="Group 3389" clip-path="url(#clip-path-13)">
                  <path id="Path_9067" data-name="Path 9067" d="M377.3,364.2c17.19,4.607,27.644,1.938,43.257-6.6a84,84,0,0,0,9.192-6.241,33.224,33.224,0,0,0,5.891-6.252c-20.107,7.694-36.813,13.518-57.54,19.308"/>
                </g>
              </g>
            </g>
            <path id="Path_9068" data-name="Path 9068" d="M327.557,325.3l3.931-10.983-9.135-14.284a10.779,10.779,0,0,0-7.075-4.787L281.664,288.9a5.419,5.419,0,0,0,2.839,6.613c4.4,2.512,24.219,7.119,24.219,7.119l-30.516-.518s-.946,4.4,2.512,5.982,25.2,2.377,25.2,2.377l-27.835,3.92s-.158,4.416,6.207,4.506a184.287,184.287,0,0,0,18.756-1.183.993.993,0,0,1,.372,1.949l-18.508,4.37a2.479,2.479,0,0,0-.181,4.788,3.023,3.023,0,0,0,1.025.068c3.155-.316,21.989-2.7,21.989-2.7l.98,2.2,18.835-3.064" fill="#ad8076"/>
            <path id="Path_9069" data-name="Path 9069" d="M313.735,321.911a6.292,6.292,0,0,0-1.036-1.667,4.6,4.6,0,0,0-1.78-1.127,6.932,6.932,0,0,0-2.569-.281c-1.87.135-3.559.676-4.821.833a4.377,4.377,0,0,1-2.073,0,17.469,17.469,0,0,1,1.994-.439,30.273,30.273,0,0,1,4.867-1.014,6.865,6.865,0,0,1,2.793.361A4.8,4.8,0,0,1,313,319.906a2.376,2.376,0,0,1,.732,2.005" fill="#a06550"/>
            <path id="Path_9070" data-name="Path 9070" d="M316.777,313.542c-.056,0-.09-.3-.338-.789a3.878,3.878,0,0,0-1.6-1.577c-1.7-.991-4.573-.664-7.592-.461s-5.79.653-7.784.912a18.792,18.792,0,0,1-3.244.327,16.407,16.407,0,0,1,3.176-.733,78.164,78.164,0,0,1,7.8-1.126,42.071,42.071,0,0,1,4.348-.169,6.92,6.92,0,0,1,3.5.856,3.737,3.737,0,0,1,1.6,1.848,1.488,1.488,0,0,1,.135.912" fill="#a06550"/>
            <path id="Path_9071" data-name="Path 9071" d="M319.1,308.675a5.5,5.5,0,0,0-.71-2.546,5.779,5.779,0,0,0-2.027-1.971,8.989,8.989,0,0,0-3.38-.991c-2.523-.237-4.889,0-6.612-.136a5.906,5.906,0,0,1-2.693-.653c0-.09,1.037.214,2.715.248a58.917,58.917,0,0,1,6.658,0,8.471,8.471,0,0,1,3.571,1.126,5.822,5.822,0,0,1,2.118,2.253,4.049,4.049,0,0,1,.506,2.005,1.825,1.825,0,0,1-.146.665" fill="#a06550"/>
            <path id="Path_9072" data-name="Path 9072" d="M428.219,308.641a10.346,10.346,0,0,1,.169-1.825c.146-1.126.428-2.86.822-4.933.778-4.146,2.152-9.811,3.605-16.064a144.516,144.516,0,0,0,2.94-16.154c.135-1.048.192-1.994.271-2.828s.123-1.543.146-2.14a9.547,9.547,0,0,1,.158-1.825,11.264,11.264,0,0,1,.067,1.836v2.153a24.63,24.63,0,0,1-.191,2.838,119.422,119.422,0,0,1-2.771,16.255c-1.465,6.263-2.895,11.895-3.774,16.019-.439,2.049-.789,3.729-1,4.877a11.25,11.25,0,0,1-.439,1.791" fill="#263238"/>
            <path id="Path_9073" data-name="Path 9073" d="M439.9,382.538a2.278,2.278,0,0,1-.665-.112l-1.87-.417-6.849-1.69c-5.778-1.453-13.743-3.56-22.529-5.992s-16.661-4.766-22.349-6.512l-6.759-2.1-1.825-.608a2.572,2.572,0,0,1-.507-.237,2.464,2.464,0,0,1,.653.135l1.859.5,6.759,1.925,22.394,6.343,22.406,6.151,6.759,1.858,1.847.53a3.351,3.351,0,0,1,.676.224" fill="#263238"/>
            <path id="Path_9074" data-name="Path 9074" d="M323.941,55.8c2.478-7.649,15.174-14.554,22.135-18.564,10.42-5.982,20.074-4.788,26.022.54,10.747-9.012,24.906-17.685,38.48-14.137s24.6,17.449,22.124,31.271c-1.453,8.145-7.1,15.444-6.758,23.656.225,5.632,3.21,10.724,5.632,15.838s4.2,11.062,2.084,16.289c-1.971,4.855-6.894,7.886-9.541,12.392-2.163,3.694-2.659,8.088-4.044,12.132-5.115,14.982-22.8,23.385-38.413,20.749s-28.624-14.385-36.048-28.4-9.811-30.1-10.667-45.9" fill="#263238"/>
            <path id="Path_9075" data-name="Path 9075" d="M335.442,66.358l3.12,124.926c1.127,14.318,14.318,24.783,29.638,23.454,15.467-1.329,27.283-14.138,26.393-28.624-.935-15.2-1.633-31.226-1.633-31.226s19.364-4.505,21.775-30.325c1.228-13.224-.913-34.92-3.154-52.11A25.616,25.616,0,0,0,382.914,50.3q-.537.069-1.072.161" fill="#ad8076"/>
            <path id="Path_9076" data-name="Path 9076" d="M405.836,90.916a3.267,3.267,0,0,1-2.94,3.5,3.131,3.131,0,0,1-3.559-2.636l-.012-.09a3.289,3.289,0,0,1,2.94-3.514,3.143,3.143,0,0,1,3.561,2.66c0,.025.007.051.01.077" fill="#263238"/>
            <path id="Path_9077" data-name="Path 9077" d="M409.092,87.581c-.383.451-2.985-1.228-6.511-.991s-5.993,2.163-6.4,1.757c-.2-.18.157-.969,1.227-1.87a9.014,9.014,0,0,1,5.1-1.938,8.7,8.7,0,0,1,5.2,1.318c1.137.778,1.554,1.51,1.374,1.724" fill="#263238"/>
            <path id="Path_9078" data-name="Path 9078" d="M372.042,94.453a3.267,3.267,0,0,1-2.94,3.515,3.144,3.144,0,0,1-3.561-2.661c0-.025-.007-.051-.01-.077a3.289,3.289,0,0,1,2.94-3.514,3.143,3.143,0,0,1,3.561,2.66c0,.025.007.051.01.077" fill="#263238"/>
            <path id="Path_9079" data-name="Path 9079" d="M374.475,90.476c-.383.451-2.985-1.228-6.511-.991s-5.993,2.163-6.4,1.757c-.2-.18.157-.969,1.239-1.87a9.006,9.006,0,0,1,5.091-1.937,8.7,8.7,0,0,1,5.205,1.317c1.194.767,1.554,1.51,1.374,1.724" fill="#263238"/>
            <path id="Path_9080" data-name="Path 9080" d="M388.939,115.788c0-.192,2.129-.71,5.632-1.4.89-.146,1.735-.383,1.848-1.014a4.56,4.56,0,0,0-.777-2.624c-.98-2.129-2.017-4.349-3.1-6.68-4.326-9.53-7.525-17.382-7.142-17.551s4.2,7.412,8.539,16.9c1.036,2.343,2.038,4.585,2.985,6.759a5.149,5.149,0,0,1,.7,3.5,2.253,2.253,0,0,1-1.4,1.409,5.635,5.635,0,0,1-1.509.3c-3.526.439-5.779.6-5.779.394" fill="#263238"/>
            <path id="Path_9081" data-name="Path 9081" d="M392.972,154.843a65.131,65.131,0,0,1-34.808-6.917s9.676,17.2,35.09,13.158Z" fill="#a06550"/>
            <path id="Path_9082" data-name="Path 9082" d="M374.5,76.6c-.293.98-3.841.755-7.942,1.521s-7.378,2.106-7.986,1.284c-.271-.394.259-1.341,1.543-2.354a14.077,14.077,0,0,1,12.132-2.141c1.555.518,2.366,1.228,2.253,1.69" fill="#263238"/>
            <path id="Path_9083" data-name="Path 9083" d="M407.131,77.454c-.563.845-3.053.169-5.97.315s-5.362.89-5.982.091c-.282-.4,0-1.217,1.127-2.051a8.651,8.651,0,0,1,9.631-.315c1.025.755,1.442,1.554,1.194,1.96" fill="#263238"/>
            <path id="Path_9084" data-name="Path 9084" d="M383.487,122.423c2.76,0,4.134.811,6.477,2.253a4.04,4.04,0,0,1,1.667,1.645,3.488,3.488,0,0,1-.349,3.064,6.161,6.161,0,0,1-5.846,3.12,5.631,5.631,0,0,1-4.9-4.337,5.284,5.284,0,0,1,2.951-5.768" fill="#a06550"/>
            <path id="Path_9085" data-name="Path 9085" d="M392.848,128.315c0,.27-.879.676-2.422.586a13.121,13.121,0,0,1-5.52-1.8,15.361,15.361,0,0,1-4.427-3.706c-.912-1.126-1.194-2.117-.957-2.253.462-.3,2.782,2.129,6.432,4.134a27.834,27.834,0,0,0,4.742,2.175c1.262.428,2.118.574,2.152.867" fill="#263238"/>
            <path id="Path_9086" data-name="Path 9086" d="M375.444,104.456a.935.935,0,1,1-.935.935.935.935,0,0,1,.935-.935" fill="#a06550"/>
            <path id="Path_9087" data-name="Path 9087" d="M402.851,100.806a.935.935,0,1,1-.935-.935.936.936,0,0,1,.935.935" fill="#a06550"/>
            <path id="Path_9088" data-name="Path 9088" d="M408.021,103.239a.946.946,0,1,1-1.881.206.884.884,0,0,1,0-.206.946.946,0,0,1,1.881,0" fill="#a06550"/>
            <path id="Path_9089" data-name="Path 9089" d="M409.587,99.331a.935.935,0,1,1-.935-.935.935.935,0,0,1,.935.935" fill="#a06550"/>
            <path id="Path_9090" data-name="Path 9090" d="M372.1,109.525a.946.946,0,1,1-.957-.935h.011a.946.946,0,0,1,.946.935" fill="#a06550"/>
            <path id="Path_9091" data-name="Path 9091" d="M368.583,105.785a.935.935,0,1,1-.935-.935.935.935,0,0,1,.935.935" fill="#a06550"/>
            <path id="Path_9092" data-name="Path 9092" d="M383.9,94.453a26.023,26.023,0,0,0-.621-3.943,16.182,16.182,0,0,0-5.925-8.82,15.838,15.838,0,0,0-6.759-2.974,16.077,16.077,0,0,0-8.4.71,14.963,14.963,0,0,0-4.034,2.185,15.35,15.35,0,0,0-3.38,3.38,15.953,15.953,0,0,0,0,18.891,15.9,15.9,0,0,0,15.816,6.342,15.862,15.862,0,0,0,6.759-2.974,16.208,16.208,0,0,0,5.925-8.809A26.278,26.278,0,0,0,383.9,94.5a.664.664,0,0,1,0,.259v.777a8.2,8.2,0,0,1-.1,1.262,11.032,11.032,0,0,1-.3,1.69,15.359,15.359,0,0,1-1.757,4.393A16.39,16.39,0,0,1,362,110.021a15.791,15.791,0,0,1-4.19-2.253,15.468,15.468,0,0,1-3.5-3.5,16.425,16.425,0,0,1,0-19.567,15.473,15.473,0,0,1,3.5-3.5A15.82,15.82,0,0,1,362,78.941a16.43,16.43,0,0,1,19.736,7.142,15.434,15.434,0,0,1,1.757,4.394,10.774,10.774,0,0,1,.3,1.7,7.809,7.809,0,0,1,.1,1.25v.777a.793.793,0,0,1,0,.248" fill="#fff"/>
            <path id="Path_9093" data-name="Path 9093" d="M390.966,89.53a12.815,12.815,0,0,0-3.853-.451,13.4,13.4,0,0,0-3.683,1.24,2.842,2.842,0,0,1,.867-.857,6.268,6.268,0,0,1,2.749-.968,6.068,6.068,0,0,1,2.906.383c.7.281,1.048.585,1.014.653" fill="#fff"/>
            <path id="Path_9094" data-name="Path 9094" d="M380.671,46.814C378.417,67.169,363.277,85.5,343.744,91.67c6.3,9.08,2.332,26.36,2.49,40.779.157,13.4.146,17.235-8.539,24.073-7.175,1.723-11.265-17.934-16.649-23.431S310.6,120.824,311,113.186c.192-3.582,1.589-7.007,1.78-10.578.226-3.965-1.047-7.885-1.746-11.749-3.109-17.291,5.813-35.889,20.92-44.935s35.167-8.437,50.116.811" fill="#263238"/>
            <path id="Path_9095" data-name="Path 9095" d="M337.56,130.5a49.338,49.338,0,0,0-9.451-17.956l.327.7A22.113,22.113,0,1,0,294.382,139.4c-2.534-.563-5.1,1.622-5.632,4.157a9.636,9.636,0,0,0,1.9,7.345c5.284,7.727,17.258,9.766,24.783,4.224,5.97,4.044,14.791,1.69,19.218-4s4.945-13.709,2.906-20.626" fill="#263238"/>
            <path id="Path_9096" data-name="Path 9096" d="M313.375,100.682a5.425,5.425,0,0,1-.642-.721,7.546,7.546,0,0,1-1.127-2.489c-.687-2.332-.36-6.016,1.487-9.913a19.584,19.584,0,0,1,4.078-5.712,38.277,38.277,0,0,1,6.128-5.215,32.134,32.134,0,0,1,7.964-3.988c2.918-1,6.016-1.78,9.17-2.568s6.241-1.566,9.124-2.58a56,56,0,0,0,8.077-3.515,59.894,59.894,0,0,0,12.155-8.561,61.464,61.464,0,0,0,6.849-7.378c.744-.935,1.284-1.69,1.656-2.253a5.15,5.15,0,0,1,.6-.744,6.708,6.708,0,0,1-.5.811c-.349.53-.856,1.307-1.577,2.253a55.969,55.969,0,0,1-6.759,7.548A59.4,59.4,0,0,1,357.848,64.4a56.634,56.634,0,0,1-8.144,3.571c-2.918,1.025-6.015,1.814-9.17,2.613s-6.24,1.555-9.135,2.535A32.244,32.244,0,0,0,323.513,77a39.546,39.546,0,0,0-6.083,5.115,19.4,19.4,0,0,0-3.965,5.643c-1.859,3.8-2.253,7.39-1.633,9.677a8.842,8.842,0,0,0,1.543,3.244" fill="#455a64"/>
            <path id="Path_9097" data-name="Path 9097" d="M378.868,45.1a6.136,6.136,0,0,1-.529.642c-.361.417-.913,1-1.623,1.757a71.491,71.491,0,0,1-6.5,5.914,45.463,45.463,0,0,1-11.175,6.759,43.041,43.041,0,0,1-7.457,2.017c-2.625.529-5.362.935-8.156,1.363a90.688,90.688,0,0,0-15.534,3.255,34.153,34.153,0,0,0-11.265,6.23A22.227,22.227,0,0,0,311.2,79.8a21.916,21.916,0,0,0-.935,2.186,3.67,3.67,0,0,1-.326.766,5.822,5.822,0,0,1,.214-.8A16.032,16.032,0,0,1,311,79.7a21.47,21.47,0,0,1,5.362-6.961A33.756,33.756,0,0,1,327.7,66.314a89.2,89.2,0,0,1,15.613-3.38c2.8-.417,5.531-.833,8.133-1.34a43.337,43.337,0,0,0,7.379-1.96,46.214,46.214,0,0,0,11.107-6.568,81.738,81.738,0,0,0,6.612-5.734l1.7-1.667a4.189,4.189,0,0,1,.62-.563" fill="#455a64"/>
            <path id="Path_9098" data-name="Path 9098" d="M407.469,22.82c0,.124-2.2.2-5.632,1.126a26.386,26.386,0,0,0-2.749.879c-.98.327-1.971.811-3.042,1.284a34.1,34.1,0,0,0-11.737,9.328c-.7.935-1.4,1.791-1.938,2.681a24.887,24.887,0,0,0-1.476,2.467c-1.656,3.109-2.253,5.249-2.343,5.2a7.271,7.271,0,0,1,.383-1.487,12.805,12.805,0,0,1,.609-1.712,20.607,20.607,0,0,1,.991-2.253,22.143,22.143,0,0,1,1.43-2.546c.53-.9,1.217-1.791,1.916-2.749A36.815,36.815,0,0,1,389.3,29.6a36.022,36.022,0,0,1,6.522-4.032,29.5,29.5,0,0,1,3.109-1.251,28.468,28.468,0,0,1,5.16-1.284,12.394,12.394,0,0,1,1.8-.214,6.708,6.708,0,0,1,1.577,0" fill="#455a64"/>
            <path id="Path_9099" data-name="Path 9099" d="M425.617,120.08s0-.079.169-.225l.529-.62c.474-.552,1.183-1.352,1.983-2.467a13.839,13.839,0,0,0,2.253-4.382,7.884,7.884,0,0,0,.237-3.03,8.68,8.68,0,0,0-1.127-3.211c-1.217-2.106-3.21-3.942-5.035-6.218A36.373,36.373,0,0,1,417,82.129a74.038,74.038,0,0,1-.27-10.983,38.2,38.2,0,0,0-1-10.8,22.225,22.225,0,0,0-12.211-14.036,20.46,20.46,0,0,0-7.705-1.78,22.528,22.528,0,0,0-13.878,4.089l-.676.473c-.146.1-.225.158-.236.147a16.077,16.077,0,0,1,3.5-2.456,22.533,22.533,0,0,1,11.265-2.67,21.029,21.029,0,0,1,7.885,1.746A22.624,22.624,0,0,1,416.245,60.2a38.763,38.763,0,0,1,1.025,10.961,74.064,74.064,0,0,0,.259,10.9,35.908,35.908,0,0,0,7.457,17.562c1.78,2.253,3.785,4.123,5.024,6.32a8.849,8.849,0,0,1,1.127,3.379,8.107,8.107,0,0,1-.293,3.166,13.669,13.669,0,0,1-2.4,4.427,27.792,27.792,0,0,1-2.072,2.41l-.586.586a.966.966,0,0,1-.169.169" fill="#455a64"/>
            <path id="Path_9100" data-name="Path 9100" d="M423,90.476a26.15,26.15,0,0,0-.621-3.943,16.016,16.016,0,0,0-28.5-5.441,15.93,15.93,0,0,0,0,18.88,14.928,14.928,0,0,0,3.379,3.38,15.289,15.289,0,0,0,4.034,2.174,16.108,16.108,0,0,0,20.641-9.64c.17-.47.32-.949.445-1.433A26.15,26.15,0,0,0,423,90.51a.721.721,0,0,1,0,.27v.766a7.958,7.958,0,0,1-.1,1.262,11.418,11.418,0,0,1-.3,1.7A15.459,15.459,0,0,1,420.84,98.9a16.395,16.395,0,0,1-19.736,7.131,15.365,15.365,0,0,1-4.19-2.253,15.79,15.79,0,0,1-3.5-3.515,16.4,16.4,0,0,1,0-19.556,15.489,15.489,0,0,1,3.5-3.5,15.82,15.82,0,0,1,4.19-2.253,16.337,16.337,0,0,1,19.736,7.2,15.3,15.3,0,0,1,1.758,4.382,11.418,11.418,0,0,1,.3,1.7A7.958,7.958,0,0,1,423,89.5v.777a.766.766,0,0,1,0,.2" fill="#fff"/>
            <path id="Path_9101" data-name="Path 9101" d="M337.538,156.939a2.512,2.512,0,0,1-.552-.372c-.349-.259-.845-.653-1.5-1.126a46.852,46.852,0,0,1-5.114-4.765,18.5,18.5,0,0,1-4.822-9.147,43.713,43.713,0,0,1-.27-6.128,10.6,10.6,0,0,0-1.757-6.038,37.1,37.1,0,0,0-4.4-4.776,17.947,17.947,0,0,1-3.627-4.991,22.1,22.1,0,0,1-1.758-5.294,21.212,21.212,0,0,1-.461-4.833,29.9,29.9,0,0,1,.484-3.954,13.4,13.4,0,0,0,.068-2.962c-.192-1.623-.507-2.49-.451-2.512a3.212,3.212,0,0,1,.248.619,13,13,0,0,1,.428,1.859,12.691,12.691,0,0,1,0,3.03c-.1,1.127-.372,2.478-.406,3.931a23.309,23.309,0,0,0,2.253,9.88,17.471,17.471,0,0,0,3.549,4.821,36.378,36.378,0,0,1,4.506,4.844,9.8,9.8,0,0,1,1.43,3.1,14.878,14.878,0,0,1,.417,3.255,45.443,45.443,0,0,0,.237,6.061,18.331,18.331,0,0,0,4.584,9.011,52.475,52.475,0,0,0,4.968,4.856l1.532,1.171a3.207,3.207,0,0,1,.417.462" fill="#455a64"/>
            <path id="Path_9102" data-name="Path 9102" d="M324.729,130.7a1.787,1.787,0,0,1,0,.462,7.969,7.969,0,0,1-.09,1.318,21.053,21.053,0,0,1-1.127,4.742,23.149,23.149,0,0,1-25.526,15.287,21.352,21.352,0,0,1-4.7-1.273c-.541-.2-.935-.428-1.2-.552s-.406-.214-.4-.237a33.277,33.277,0,0,0,6.354,1.656,24.383,24.383,0,0,0,7.085-.124,22.464,22.464,0,0,0,14.554-8.707,24.309,24.309,0,0,0,3.447-6.185,34.6,34.6,0,0,0,1.6-6.387" fill="#455a64"/>
            <path id="Path_9103" data-name="Path 9103" d="M320.393,125.408a6.61,6.61,0,0,1-.327,1.543,22.306,22.306,0,0,1-1.588,4,25.971,25.971,0,0,1-9.6,10.284,28,28,0,0,1-13.517,3.966,25.879,25.879,0,0,1-4.292-.226,7.139,7.139,0,0,1-1.544-.315,57.74,57.74,0,0,0,5.824.123,28.872,28.872,0,0,0,13.237-4.055,26.724,26.724,0,0,0,9.53-9.98,44.408,44.408,0,0,0,2.275-5.34" fill="#455a64"/>
            <path id="Path_9104" data-name="Path 9104" d="M287.443,114.189a4.252,4.252,0,0,1,1.014-.586,9.729,9.729,0,0,1,1.25-.563,15.738,15.738,0,0,1,1.724-.608,23.6,23.6,0,0,1,4.652-.9,27.375,27.375,0,0,1,5.8.113,27.739,27.739,0,0,1,5.633,1.408,23.47,23.47,0,0,1,4.235,2.141,14.905,14.905,0,0,1,1.476,1.058,8.4,8.4,0,0,1,1.048.89,4.88,4.88,0,0,1,.8.856c-.079.091-1.262-1.126-3.549-2.455a25.35,25.35,0,0,0-4.2-1.983,30.422,30.422,0,0,0-5.519-1.329,29.708,29.708,0,0,0-5.633-.169,25.725,25.725,0,0,0-4.585.777c-2.613.676-4.032,1.453-4.145,1.352" fill="#455a64"/>
            <path id="Path_9105" data-name="Path 9105" d="M313.375,112.105c-.1.124-7.209-5.914-15.861-13.518S281.924,84.8,282.025,84.675s7.21,5.926,15.872,13.518,15.568,13.8,15.478,13.912" fill="#50c3be"/>
            <path id="Path_9106" data-name="Path 9106" d="M345.828,99.77a6.931,6.931,0,0,1,2.321-2.613,6.858,6.858,0,0,1,3.064-1.69,20.741,20.741,0,0,1-2.7,2.14,22.367,22.367,0,0,1-2.681,2.163" fill="#fff"/>
            <path id="Path_9107" data-name="Path 9107" d="M314.2,106.112a1.376,1.376,0,0,1-.146-.225c-.1-.192-.226-.417-.383-.687a9.992,9.992,0,0,1-.879-2.884,14.421,14.421,0,0,1,2.974-10.477,16.568,16.568,0,0,1,2.512-2.714,19.971,19.971,0,0,1,3.312-2.253A29.2,29.2,0,0,1,329.9,84.01c6.094-1.272,12.955-.968,19.939-2.005a30.691,30.691,0,0,0,9.811-3.03,29.254,29.254,0,0,0,7.525-5.858,46.311,46.311,0,0,0,8.719-13.653c1.848-4.269,3.008-7.885,3.853-10.318l.957-2.85.259-.732a1.535,1.535,0,0,1,.1-.248v.259l-.2.755-.935,2.929a104.188,104.188,0,0,1-3.684,10.408,46.017,46.017,0,0,1-8.707,13.867,29.536,29.536,0,0,1-7.683,5.948,30.864,30.864,0,0,1-9.958,3.109c-7.074,1.059-13.9.721-19.927,1.96s-11.2,3.751-13.912,7.536a14.328,14.328,0,0,0-3.064,10.139,12.935,12.935,0,0,0,1.2,3.886" fill="#f0f0f0"/>
            <path id="Path_9108" data-name="Path 9108" d="M321.35,150.844A16.714,16.714,0,0,1,320,155.35a21,21,0,0,1-2.94,4.787,19.739,19.739,0,0,1-5.7,4.8,18.655,18.655,0,0,1-8.719,2.253,17,17,0,0,1-9.89-2.895,16.554,16.554,0,0,1-6.556-9.271,14.366,14.366,0,0,1-.338-6.094,14.753,14.753,0,0,1,2.354-5.835,14.1,14.1,0,0,1,8.37-5.925v.563a22.6,22.6,0,0,1-9.665-3.932,18.571,18.571,0,0,1-6.151-7.378,17.362,17.362,0,0,1-1.5-8.482,14.382,14.382,0,0,1,2.444-7.018,14.637,14.637,0,0,1,4.506-4.168,13.861,13.861,0,0,1,4.269-1.645,11.846,11.846,0,0,1,2.862-.214l.732.079a.793.793,0,0,1,.248,0,14.887,14.887,0,0,0-3.808.293,13.67,13.67,0,0,0-4.145,1.7,14.341,14.341,0,0,0-4.3,4.123,14,14,0,0,0-2.31,6.837,17.072,17.072,0,0,0,1.51,8.235,18.151,18.151,0,0,0,6,7.142,22.407,22.407,0,0,0,9.44,3.818l1.453.226-1.431.338a13.518,13.518,0,0,0-8.02,5.7,14.187,14.187,0,0,0-2.253,5.632,14.04,14.04,0,0,0,.315,5.858,16.035,16.035,0,0,0,6.32,9.012,16.577,16.577,0,0,0,9.575,2.85,18.24,18.24,0,0,0,8.527-2.152,19.48,19.48,0,0,0,5.633-4.63,21.6,21.6,0,0,0,3-4.675,25.4,25.4,0,0,0,1.251-3.289c.1-.36.18-.653.236-.89Z" fill="#263238"/>
            <path id="Path_9109" data-name="Path 9109" d="M314.715,102.124a1.018,1.018,0,0,1-.27-.124l-.789-.417a20.831,20.831,0,0,1-2.8-1.926,23.334,23.334,0,0,1,.654-36.768,32.965,32.965,0,0,1,10.577-5.182,59.226,59.226,0,0,1,11.659-2.062c3.785-.36,7.435-.529,10.9-.766a95.4,95.4,0,0,0,9.8-1.126A44.563,44.563,0,0,0,362.7,51.5a29.6,29.6,0,0,0,10.386-6.545,25.238,25.238,0,0,0,2.174-2.579l.518-.71a1.215,1.215,0,0,1,.192-.237,17.32,17.32,0,0,1-2.726,3.684,28.827,28.827,0,0,1-10.431,6.759,44.464,44.464,0,0,1-8.325,2.332,94.068,94.068,0,0,1-9.845,1.126c-6.928.552-14.645.608-22.361,2.895a32.881,32.881,0,0,0-10.4,5.069A23.093,23.093,0,0,0,304,89.338a23.819,23.819,0,0,0,6.984,10.049,23.22,23.22,0,0,0,2.726,2l.744.462a1.41,1.41,0,0,1,.259.27" fill="#263238"/>
            <path id="Path_9110" data-name="Path 9110" d="M440.25,85.509a1.449,1.449,0,0,1-1.048.518,2.916,2.916,0,0,1-2.748-1.791,2.657,2.657,0,0,1,.158-2.456,4.57,4.57,0,0,1,2.252-1.9A7.152,7.152,0,0,1,445.747,81a7.391,7.391,0,0,1,2.557,3.3,7.807,7.807,0,0,1,.316,4.506,7.437,7.437,0,0,1-2.5,4.156,8.94,8.94,0,0,1-4.743,2,12.454,12.454,0,0,1-10.025-3.942,14.1,14.1,0,0,1-3.211-4.878,11.115,11.115,0,0,1-.563-5.981,26.325,26.325,0,0,1,1.825-5.7c.755-1.8,1.453-3.583,2.039-5.362a45.2,45.2,0,0,0,2.253-10.567,31.925,31.925,0,0,0-.586-9.71,25.176,25.176,0,0,0-3.21-7.885,22.163,22.163,0,0,0-9.012-8.224,20.46,20.46,0,0,0-3.143-1.126l-.856-.214a1.014,1.014,0,0,1-.282-.1h.293l.867.158a17.548,17.548,0,0,1,3.222,1.07,22.016,22.016,0,0,1,9.226,8.223,25.3,25.3,0,0,1,3.379,7.886,32.146,32.146,0,0,1,.654,9.868,45.413,45.413,0,0,1-2.253,10.7c-.586,1.8-1.3,3.605-2.05,5.4a26.8,26.8,0,0,0-1.78,5.633,10.546,10.546,0,0,0,.541,5.632,13.3,13.3,0,0,0,3.075,4.686,11.93,11.93,0,0,0,9.541,3.819,8.484,8.484,0,0,0,4.506-1.87,6.939,6.939,0,0,0,2.366-3.864,7.459,7.459,0,0,0-.259-4.258,7.159,7.159,0,0,0-2.389-3.143,6.757,6.757,0,0,0-6.511-1.126,4.239,4.239,0,0,0-2.129,1.734,2.424,2.424,0,0,0-.2,2.253,2.8,2.8,0,0,0,2.534,1.758,2.036,2.036,0,0,0,1.014-.327" fill="#263238"/>
            <g id="Group_3394" data-name="Group 3394" opacity="0.2">
              <g id="Group_3393" data-name="Group 3393">
                <g id="Group_3392" data-name="Group 3392" clip-path="url(#clip-path-14)">
                  <path id="Path_9111" data-name="Path 9111" d="M433.063,340.453c5.475-1.543,11.152,3.379,16.706,2.107,3.379-.789,5.925-3.808,7.457-6.973s2.354-6.658,3.976-9.789,4.326-6.005,7.818-6.489c3.2-.428,7,1.07,9.372-1.127,1.837-1.689,1.589-4.821.124-6.837s-3.785-3.2-6.026-4.3a34.3,34.3,0,0,0-7.784-3.087,11.492,11.492,0,0,0-8.145.946c-4.686,2.726-5.632,8.911-6.995,14.16a28.37,28.37,0,0,1-4.6,10.262,15.239,15.239,0,0,1-9.282,5.993,10.04,10.04,0,0,0-4.135,1.059c-1.182.811-1.644,2.839-.416,3.594"/>
                </g>
              </g>
            </g>
            <path id="Path_9112" data-name="Path 9112" d="M404.529,320.21l20.524-7.153,18.4-28.759a12.245,12.245,0,0,1,8.02-5.43l32.995-6.229a5.417,5.417,0,0,1-2.828,6.612c-4.4,2.512-24.219,7.131-24.219,7.131l30.516-.518s.935,4.4-2.523,5.981-25.2,2.366-25.2,2.366l27.858,3.965s.157,4.427-6.207,4.506a184.834,184.834,0,0,1-18.756-1.126.992.992,0,0,0-.372,1.948l18.508,4.371a2.479,2.479,0,0,1,.192,4.788,2.875,2.875,0,0,1-1.037.067c-3.143-.315-21.989-2.7-21.989-2.7s-6.646,23.295-10.949,25.176-13.326,2.4-13.326,2.4l-19.15,7.581Z" fill="#ad8076"/>
            <path id="Path_9113" data-name="Path 9113" d="M485.816,285.774a7.348,7.348,0,0,1-1.6.158l-4.37.214c-3.684.157-8.787.338-14.408.484l-7.942.2a17.4,17.4,0,0,0-6.3.9,6.766,6.766,0,0,0-3.233,2.67,11.615,11.615,0,0,0-.642,1.442,1.326,1.326,0,0,1,0-.417,4.715,4.715,0,0,1,.406-1.127,6.764,6.764,0,0,1,3.278-2.94,17.094,17.094,0,0,1,6.443-1.059l7.886-.247c5.632-.147,10.735-.259,14.418-.316h4.371a10.151,10.151,0,0,1,1.69.034" fill="#a06550"/>
            <path id="Path_9114" data-name="Path 9114" d="M486.278,298.255a6.954,6.954,0,0,1-1.476-.1l-3.987-.507c-3.38-.44-8.021-1.127-13.146-1.87-2.558-.361-5-.823-7.21-1.014a9.738,9.738,0,0,0-5.632,1.014,8.842,8.842,0,0,0-2.918,2.613c-.541.766-.755,1.251-.8,1.228a1.252,1.252,0,0,1,.113-.372,6.6,6.6,0,0,1,.5-.991,8.5,8.5,0,0,1,2.906-2.839,9.882,9.882,0,0,1,5.88-1.194c2.253.169,4.7.62,7.266.969,5.125.766,9.767,1.5,13.112,2.05l3.965.687a7.533,7.533,0,0,1,1.431.327" fill="#a06550"/>
            <path id="Path_9115" data-name="Path 9115" d="M470.789,305.341a22.75,22.75,0,0,1-3.222-.7c-1.982-.485-4.708-1.206-7.727-1.825a13.46,13.46,0,0,0-2.186-.327,3.983,3.983,0,0,0-1.87.552,6.761,6.761,0,0,0-2.467,2.343,9.2,9.2,0,0,0-.98,3.064,1.912,1.912,0,0,1-.067-.9,5.984,5.984,0,0,1,.676-2.366,6.9,6.9,0,0,1,2.568-2.613,4.675,4.675,0,0,1,2.129-.653,14.154,14.154,0,0,1,2.309.315c3.064.642,5.768,1.419,7.717,2.005a16.675,16.675,0,0,1,3.12,1.1" fill="#a06550"/>
            <path id="Path_9116" data-name="Path 9116" d="M252.173,335.677l61.562-7.57,107.973-17.55,13.935,35.022c-40.554,14.058-82.166,26.742-122.989,37.895a45.332,45.332,0,0,1-10.139.856c-13.63.056-47.244-5.419-50.342-48.653" fill="#50c3be"/>
            <path id="Path_9117" data-name="Path 9117" d="M435.643,345.579a6.3,6.3,0,0,1-.282-.62c-.191-.439-.439-1.047-.777-1.836-.665-1.644-1.633-4.01-2.861-7.029l-10.24-25.458.259.146-52.46,8.764c-12.391,2.129-24.275,3.515-35.045,4.945-5.395.71-10.51,1.42-15.275,2.253q-3.582.575-6.894,1.127a56.766,56.766,0,0,0-6.274,1.374,25.628,25.628,0,0,0-14.644,11.9,26.612,26.612,0,0,0-2.152,4.81c-.191.574-.315,1.025-.394,1.318a2.671,2.671,0,0,1-.158.45,13.6,13.6,0,0,1,.439-1.8,25.147,25.147,0,0,1,2.062-4.889,26.243,26.243,0,0,1,5.159-6.612,25.964,25.964,0,0,1,9.6-5.565,59.079,59.079,0,0,1,6.319-1.431c2.253-.4,4.506-.822,6.894-1.216,4.777-.789,9.891-1.532,15.275-2.253,10.781-1.453,22.654-2.85,35.023-4.991l52.482-8.64h.192l.067.181c4.191,10.633,7.638,19.4,10.049,25.526l2.748,7.074c.3.8.53,1.419.71,1.858a1.951,1.951,0,0,1,.18.62" fill="#263238"/>
            <path id="Path_9118" data-name="Path 9118" d="M285.3,382.471a2.713,2.713,0,0,1,.5.1l1.43.35c1.262.27,3.121.7,5.554.991a60.721,60.721,0,0,0,20.6-.991c2.14-.451,4.348-1.059,6.658-1.713l7.187-2.027L343,374.676c11.141-3.244,23.363-6.883,36.149-10.859,21.4-6.647,41.071-13.158,56.324-18.418l-.135.3c-4.213-10.7-7.672-19.455-10.071-25.571-1.183-3.031-2.1-5.407-2.737-7.052-.3-.789-.53-1.4-.7-1.848s-.214-.63-.214-.63.1.2.282.608.428,1.048.755,1.825l2.85,6.995,10.262,25.5.09.225-.225.079c-15.275,5.339-34.921,11.884-56.324,18.542-12.786,3.976-25.019,7.6-36.172,10.825l-15.86,4.506-7.2,1.983c-2.253.642-4.506,1.25-6.68,1.689a60.041,60.041,0,0,1-20.727.823,39.3,39.3,0,0,1-7.367-1.735" fill="#263238"/>
            <path id="Path_9119" data-name="Path 9119" d="M309.162,328.107a7.393,7.393,0,0,1-1.543.237l-4.225.416-13.923,1.363-13.923,1.487-4.224.44a7.107,7.107,0,0,1-1.555.09,9.3,9.3,0,0,1,1.532-.316c.991-.157,2.422-.371,4.2-.619,3.548-.5,8.46-1.127,13.9-1.656s10.386-.958,13.957-1.194c1.791-.124,3.244-.2,4.246-.248a9.174,9.174,0,0,1,1.555,0" fill="#263238"/>
            <path id="Path_9120" data-name="Path 9120" d="M201.594,441.036c-3.109,4.45-9.17,2.974-11.974.259s-3.988-6.646-5.07-10.4c-2.467-8.573-4.956-17.562-3.12-26.292a14.644,14.644,0,0,1,3.379-7.153,7.615,7.615,0,0,1,7.232-2.4c3.053.8,4.946,3.785,6.32,6.635a62.669,62.669,0,0,1,6.2,26.9c0,4.326-.5,8.877-2.94,12.448" fill="#50c3be"/>
            <g id="Group_3397" data-name="Group 3397" opacity="0.2">
              <g id="Group_3396" data-name="Group 3396">
                <g id="Group_3395" data-name="Group 3395" clip-path="url(#clip-path-15)">
                  <path id="Path_9121" data-name="Path 9121" d="M201.594,441.036c-3.109,4.45-9.17,2.974-11.974.259s-3.988-6.646-5.07-10.4c-2.467-8.573-4.956-17.562-3.12-26.292a14.644,14.644,0,0,1,3.379-7.153,7.615,7.615,0,0,1,7.232-2.4c3.053.8,4.946,3.785,6.32,6.635a62.669,62.669,0,0,1,6.2,26.9c0,4.326-.5,8.877-2.94,12.448"/>
                </g>
              </g>
            </g>
            <path id="Path_9122" data-name="Path 9122" d="M189.924,463.555c-5.092-2.625-11.085-2.963-16.739-2.028-3.031.5-6.207,1.408-8.269,3.695s-2.456,6.3-.09,8.257a7.976,7.976,0,0,0,5.216,1.318c4.427-.056,9.338-.833,12.875,1.836,2.017,1.51,3.38,4.044,5.768,4.788a5.7,5.7,0,0,0,6.274-2.771,9.72,9.72,0,0,0,.71-7.187,10.971,10.971,0,0,0-5.745-7.908" fill="#50c3be"/>
            <path id="Path_9123" data-name="Path 9123" d="M210.144,447.424c-3.379-4.022-4.022-9.868-2.512-14.892s4.9-9.305,8.809-12.8a47.5,47.5,0,0,1,15.771-9.316,16.554,16.554,0,0,1,7.1-1.205,7.424,7.424,0,0,1,5.959,3.605c1.667,3.165.067,7.018-1.656,10.138a119.321,119.321,0,0,1-10.375,15.771c-3.109,4.01-6.669,7.964-11.4,9.777s-9.665,1.6-12.177-1.689" fill="#50c3be"/>
            <path id="Path_9124" data-name="Path 9124" d="M201.808,508.118a9.216,9.216,0,0,1-.282-2.016c-.146-1.465-.326-3.312-.54-5.509a81.349,81.349,0,0,0-1.239-8.1,62.156,62.156,0,0,0-2.941-9.542,35.254,35.254,0,0,0-4.877-8.64,18.278,18.278,0,0,0-6.162-5.125,17.216,17.216,0,0,0-5.227-1.611,9.909,9.909,0,0,1-2-.293,9.52,9.52,0,0,1,2.039,0,15.769,15.769,0,0,1,5.418,1.408,18.2,18.2,0,0,1,6.5,5.171,34.343,34.343,0,0,1,5.058,8.809,59.649,59.649,0,0,1,2.917,9.71,68.034,68.034,0,0,1,1.127,8.19c.18,2.343.248,4.235.27,5.542a9.535,9.535,0,0,1-.056,2.005" fill="#263238"/>
            <path id="Path_9125" data-name="Path 9125" d="M201.425,503.883a3.8,3.8,0,0,1-.056-.935v-2.692c0-2.321,0-5.689-.124-9.846-.2-8.313-.924-19.8-2.253-32.42s-3.278-23.971-4.934-32.116c-.406-2.05-.8-3.886-1.127-5.5s-.664-3-.957-4.123-.462-1.926-.631-2.613a4.529,4.529,0,0,1-.169-.924,3.677,3.677,0,0,1,.327.879c.214.676.462,1.532.788,2.568s.7,2.5,1.127,4.112.867,3.435,1.306,5.474a303.971,303.971,0,0,1,5.171,32.15c1.386,12.65,2.016,24.163,2.073,32.5,0,4.168,0,7.547-.147,9.868-.067,1.126-.124,1.983-.169,2.681a3.721,3.721,0,0,1-.225.935" fill="#263238"/>
            <path id="Path_9126" data-name="Path 9126" d="M201.369,481.669a18.352,18.352,0,0,1,0-2.794c.1-1.8.349-4.4.856-7.592a100.108,100.108,0,0,1,2.467-11.051,98.656,98.656,0,0,1,4.619-13.09A69.834,69.834,0,0,1,222.9,426a33.57,33.57,0,0,1,3.188-2.962,17.557,17.557,0,0,1,1.363-1.127l1.239-.856a19.3,19.3,0,0,1,2.366-1.509c.135.191-3.38,2.253-7.728,6.9a73.374,73.374,0,0,0-13.247,21.065,103.463,103.463,0,0,0-4.641,12.955,111.731,111.731,0,0,0-2.636,10.949c-.575,3.154-.913,5.734-1.127,7.514a17.01,17.01,0,0,1-.3,2.737" fill="#263238"/>
            <path id="Path_9127" data-name="Path 9127" d="M529.276,124.485c-1.127-8.933-8.664-17.258-17.664-17.258-5.306,0-10.363,2.771-13.991,6.658a35.5,35.5,0,0,0-3.548,4.2,36.185,36.185,0,0,0-2.659-4.822c-2.793-4.506-7.2-8.234-12.391-9.282-8.832-1.757-17.865,4.912-20.716,13.45s-.472,18.114,4.2,25.8,12.729,17.742,27.565,22.721c10.218-1.307,23.916-10.375,30.009-17s10.3-15.534,9.193-24.467" fill="#3c9a96"/>
            <path id="Path_9128" data-name="Path 9128" d="M526.031,140.515h-.293l-.867-.056-3.38-.282-12.233-1.126.214-.136-5.092,13.293-.315.8-.2-.834c-1.543-6.455-3.289-13.675-5.126-21.29l-1.656-6.928.519.112L488.26,136.91l-.09.113h-.1l-21.505-2.253-6.083-.676-1.611-.2-.552-.1a3.125,3.125,0,0,1,.564,0l1.61.124,6.106.529,21.516,2.028-.237.113,9.294-12.876.371-.507.147.608c.541,2.253,1.126,4.585,1.667,6.951,1.814,7.615,3.537,14.847,5.08,21.3h-.518l5.2-13.258.056-.147h.158l12.222,1.307,3.323.394.856.113Z" fill="#f0f0f0"/>
          </g>
        </g>
      </g>
    </g>
  </g>
</svg>
